<svg xmlns="http://www.w3.org/2000/svg" version="1.1" xmlns:xlink="http://www.w3.org/1999/xlink" xmlns:svgjs="http://svgjs.dev/svgjs" width="1500" height="1500" viewBox="0 0 1500 1500"><g transform="matrix(1,0,0,1,-0.21332335329316265,-0.21332335329350371)"><svg viewBox="0 0 334 334" data-background-color="#ffffff" preserveAspectRatio="xMidYMid meet" height="1500" width="1500" xmlns="http://www.w3.org/2000/svg" xmlns:xlink="http://www.w3.org/1999/xlink"><g id="tight-bounds" transform="matrix(1,0,0,1,0.04749999999998522,0.04750000000001364)"><svg viewBox="0 0 333.90454557049503 333.90454557049503" height="333.90454557049503" width="333.90454557049503"><g><svg></svg></g><g><svg viewBox="0 0 333.90454557049503 333.90454557049503" height="333.90454557049503" width="333.90454557049503"><g><path d="M0 166.952c0-92.205 74.747-166.952 166.952-166.952 92.205 0 166.952 74.747 166.953 166.952 0 92.205-74.747 166.952-166.953 166.953-92.205 0-166.952-74.747-166.952-166.953zM166.952 328.715c89.339 0 161.763-72.424 161.763-161.763 0-89.339-72.424-161.763-161.763-161.763-89.339 0-161.763 72.424-161.763 161.763 0 89.339 72.424 161.763 161.763 161.763z" data-fill-palette-color="tertiary" fill="#556970" stroke="transparent"></path><ellipse rx="160.27418187383762" ry="160.27418187383762" cx="166.95227278524752" cy="166.95227278524752" fill="#556970" stroke="transparent" stroke-width="0" fill-opacity="1" data-fill-palette-color="tertiary"></ellipse></g><g transform="matrix(1,0,0,1,80.11299215629323,71.17305217166896)"><svg viewBox="0 0 173.67856125790857 191.55844122715712" height="191.55844122715712" width="173.67856125790857"><g><svg viewBox="0 0 173.67856125790857 191.55844122715712" height="191.55844122715712" width="173.67856125790857"><g><svg viewBox="0 0 213.1584412271571 235.10270029960577" height="191.55844122715712" width="173.67856125790857"><g transform="matrix(1,0,0,1,0,128.30798684493328)"><svg viewBox="0 0 213.1584412271571 106.79471345467248" height="106.79471345467248" width="213.1584412271571"><g id="textblocktransform"><svg viewBox="0 0 213.1584412271571 106.79471345467248" height="106.79471345467248" width="213.1584412271571" id="textblock"><g><svg viewBox="0 0 213.1584412271571 70.6229921608822" height="70.6229921608822" width="213.1584412271571"><g transform="matrix(1,0,0,1,0,0)"><svg width="213.1584412271571" viewBox="0.75 -35 107.44 35.6" height="70.6229921608822" data-palette-color="#ffffff"><path d="M11.3-35Q14.05-35 16.18-34.02 18.3-33.05 20.1-31.05L20.1-31.05 17.7-28.45Q16.15-29.95 14.65-30.63 13.15-31.3 11.35-31.3L11.35-31.3Q9.2-31.3 7.88-29.93 6.55-28.55 6.55-26.3L6.55-26.3Q6.55-24.1 7.83-22.7 9.1-21.3 12.65-19.95L12.65-19.95Q16.75-18.4 18.85-16.1 20.95-13.8 20.95-9.55L20.95-9.55Q20.95-6.8 19.68-4.48 18.4-2.15 16.05-0.78 13.7 0.6 10.6 0.6L10.6 0.6Q7.5 0.6 5.1-0.55 2.7-1.7 0.75-3.85L0.75-3.85 3.2-6.45Q4.95-4.85 6.68-4 8.4-3.15 10.5-3.15L10.5-3.15Q13.1-3.15 14.65-4.85 16.2-6.55 16.2-9.45L16.2-9.45Q16.2-11.95 14.95-13.45 13.7-14.95 10.3-16.2L10.3-16.2Q5.95-17.85 3.93-20.2 1.9-22.55 1.9-26.1L1.9-26.1Q1.9-28.55 3.1-30.6 4.3-32.65 6.45-33.83 8.6-35 11.3-35L11.3-35ZM36.9-35Q42.6-35 45.8-30.58 49-26.15 49-17.2L49-17.2Q49-8.35 45.8-3.88 42.6 0.6 36.9 0.6L36.9 0.6Q31.2 0.6 27.97-3.8 24.75-8.2 24.75-17.15L24.75-17.15Q24.75-26 28-30.5 31.25-35 36.9-35L36.9-35ZM36.9-31.3Q33.3-31.3 31.42-28 29.55-24.7 29.55-17.15L29.55-17.15Q29.55-9.65 31.45-6.4 33.35-3.15 36.9-3.15L36.9-3.15Q40.5-3.15 42.35-6.38 44.2-9.6 44.2-17.2L44.2-17.2Q44.2-24.75 42.35-28.03 40.5-31.3 36.9-31.3L36.9-31.3ZM79.2-34.45L81.5 0 77.2 0 76.3-15.65Q75.65-25.35 75.75-29.8L75.75-29.8 69.9-3.9 65.65-3.9 59.5-29.85 59.55-27.55Q59.55-23.65 59.15-15.35L59.15-15.35 58.3 0 54 0 56.35-34.45 62.25-34.45 67.84-9.2 73.15-34.45 79.2-34.45ZM108.19 0L103.54 0 101.49-8.75 91.19-8.75 89.14 0 84.64 0 93.59-34.45 99.24-34.45 108.19 0ZM96.34-30.65L92.04-12.4 100.64-12.4 96.34-30.65Z" opacity="1" transform="matrix(1,0,0,1,0,0)" fill="#ffffff" class="wordmark-text-0" data-fill-palette-color="quaternary" id="text-0"></path></svg></g></svg></g><g transform="matrix(1,0,0,1,0,87.29538565825463)"><svg viewBox="0 0 213.1584412271571 19.499327796417838" height="19.499327796417838" width="213.1584412271571"><g transform="matrix(1,0,0,1,0,0)"><svg width="213.1584412271571" viewBox="3.45 -36.5 519.1999999999999 47.5" height="19.499327796417838" data-palette-color="#ffffff"><path d="M22.1 0L12.7 0Q9.85 0 7.78-1.23 5.7-2.45 4.58-4.58 3.45-6.7 3.45-9.35L3.45-9.35 3.45-35 8.25-35 8.25-8.75Q8.25-6.8 9.47-5.53 10.7-4.25 12.7-4.25L12.7-4.25 22.1-4.25 22.1 0ZM46.75 0L40.2 0Q36 0 32.75-1.58 29.5-3.15 27.67-6.03 25.85-8.9 25.85-12.75L25.85-12.75Q25.85-16.55 27.4-19.58 28.95-22.6 31.7-24.35 34.45-26.1 38.1-26.1L38.1-26.1Q42.05-26.1 44.67-24.4 47.3-22.7 48.6-19.83 49.9-16.95 49.9-13.4L49.9-13.4Q49.9-12.85 49.87-12.25 49.85-11.65 49.75-11.2L49.75-11.2 30.75-11.2Q31-8.85 32.3-7.23 33.6-5.6 35.62-4.78 37.65-3.95 40.1-3.95L40.1-3.95 46.75-3.95 46.75 0ZM30.7-14.45L30.7-14.45 45.25-14.45Q45.25-15.4 45.05-16.48 44.85-17.55 44.35-18.57 43.85-19.6 43.02-20.43 42.2-21.25 40.97-21.75 39.75-22.25 38.1-22.25L38.1-22.25Q36.35-22.25 35.02-21.58 33.7-20.9 32.75-19.78 31.8-18.65 31.3-17.25 30.8-15.85 30.7-14.45ZM66.34 0.6L66.34 0.6Q62.64 0.6 59.95-1.18 57.24-2.95 55.8-6 54.34-9.05 54.34-12.75L54.34-12.75Q54.34-16.5 55.95-19.53 57.55-22.55 60.55-24.33 63.55-26.1 67.75-26.1L67.75-26.1Q71.8-26.1 74.69-24.35 77.59-22.6 79.17-19.6 80.75-16.6 80.75-12.9L80.75-12.9 80.75 0 76.09 0 76.09-5.2 76-5.2Q75.25-3.75 73.97-2.43 72.69-1.1 70.8-0.25 68.89 0.6 66.34 0.6ZM67.55-3.35L67.55-3.35Q70.05-3.35 71.97-4.58 73.89-5.8 74.97-7.98 76.05-10.15 76.05-12.85L76.05-12.85Q76.05-15.5 75.02-17.6 74-19.7 72.09-20.93 70.19-22.15 67.64-22.15L67.64-22.15Q64.94-22.15 63.02-20.9 61.09-19.65 60.07-17.53 59.05-15.4 59.05-12.7L59.05-12.7Q59.05-10.1 60.05-7.98 61.05-5.85 62.95-4.6 64.84-3.35 67.55-3.35ZM92.49 0L87.89 0 87.89-18.25Q87.89-21.65 89.82-23.58 91.74-25.5 95.14-25.5L95.14-25.5 100.39-25.5 100.39-21.55 95.99-21.55Q94.34-21.55 93.42-20.6 92.49-19.65 92.49-17.95L92.49-17.95 92.49 0ZM109.24 0L104.64 0 104.64-14.75Q104.64-18.15 106.17-20.7 107.69-23.25 110.39-24.68 113.09-26.1 116.54-26.1L116.54-26.1Q120.04-26.1 122.72-24.68 125.39-23.25 126.92-20.7 128.44-18.15 128.44-14.75L128.44-14.75 128.44 0 123.84 0 123.84-14.7Q123.84-17 122.82-18.68 121.79-20.35 120.12-21.25 118.44-22.15 116.54-22.15L116.54-22.15Q114.64-22.15 112.97-21.25 111.29-20.35 110.27-18.68 109.24-17 109.24-14.7L109.24-14.7 109.24 0ZM140.39 0L135.74 0 135.74-25.5 140.39-25.5 140.39 0ZM138.09-29.55L138.09-29.55Q136.84-29.55 135.91-30.48 134.99-31.4 134.99-32.65L134.99-32.65Q134.99-33.9 135.91-34.83 136.84-35.75 138.09-35.75L138.09-35.75Q139.34-35.75 140.26-34.83 141.19-33.9 141.19-32.65L141.19-32.65Q141.19-31.4 140.26-30.48 139.34-29.55 138.09-29.55ZM152.24 0L147.64 0 147.64-14.75Q147.64-18.15 149.16-20.7 150.69-23.25 153.39-24.68 156.09-26.1 159.54-26.1L159.54-26.1Q163.04-26.1 165.71-24.68 168.39-23.25 169.91-20.7 171.44-18.15 171.44-14.75L171.44-14.75 171.44 0 166.84 0 166.84-14.7Q166.84-17 165.81-18.68 164.79-20.35 163.11-21.25 161.44-22.15 159.54-22.15L159.54-22.15Q157.64-22.15 155.96-21.25 154.29-20.35 153.26-18.68 152.24-17 152.24-14.7L152.24-14.7 152.24 0ZM195.93 10.15L182.58 10.15 182.58 6.2 195.08 6.2Q196.93 6.2 197.96 5.1 198.98 4 198.98 2.2L198.98 2.2 198.98-4.8 198.88-4.8Q197.93-3.35 196.58-2.2 195.23-1.05 193.48-0.38 191.73 0.3 189.53 0.3L189.53 0.3Q185.93 0.3 183.18-1.38 180.43-3.05 178.88-6.03 177.33-9 177.33-12.85L177.33-12.85Q177.33-16.6 178.88-19.6 180.43-22.6 183.36-24.35 186.28-26.1 190.43-26.1L190.43-26.1Q194.43-26.1 197.38-24.4 200.33-22.7 201.96-19.68 203.58-16.65 203.58-12.6L203.58-12.6 203.58 2.5Q203.58 6 201.53 8.08 199.48 10.15 195.93 10.15L195.93 10.15ZM190.38-3.65L190.38-3.65Q192.93-3.65 194.86-4.85 196.78-6.05 197.86-8.13 198.93-10.2 198.93-12.8L198.93-12.8Q198.93-15.45 197.88-17.55 196.83-19.65 194.93-20.88 193.03-22.1 190.38-22.1L190.38-22.1Q187.78-22.1 185.91-20.88 184.03-19.65 183.01-17.53 181.98-15.4 181.98-12.75L181.98-12.75Q181.98-10.25 183.01-8.18 184.03-6.1 185.91-4.88 187.78-3.65 190.38-3.65ZM223.98 0L218.93 0 230.83-31.65Q231.63-33.7 233.03-34.65 234.43-35.6 236.28-35.6L236.28-35.6Q238.13-35.6 239.55-34.68 240.98-33.75 241.73-31.7L241.73-31.7 253.68 0 248.43 0 245.38-8.45 227.08-8.45 223.98 0ZM234.98-30.05L228.58-12.7 243.93-12.7 237.68-30.05Q237.43-30.7 237.13-31.05 236.83-31.4 236.28-31.4L236.28-31.4Q235.78-31.4 235.48-31.05 235.18-30.7 234.98-30.05L234.98-30.05ZM262.03 0L257.43 0 257.43-14.75Q257.43-18.15 258.95-20.7 260.48-23.25 263.18-24.68 265.88-26.1 269.33-26.1L269.33-26.1Q272.83-26.1 275.5-24.68 278.18-23.25 279.7-20.7 281.23-18.15 281.23-14.75L281.23-14.75 281.23 0 276.63 0 276.63-14.7Q276.63-17 275.6-18.68 274.58-20.35 272.9-21.25 271.23-22.15 269.33-22.15L269.33-22.15Q267.43-22.15 265.75-21.25 264.08-20.35 263.05-18.68 262.03-17 262.03-14.7L262.03-14.7 262.03 0ZM300.27 0.6L300.27 0.6Q303.97 0.6 306.92-1 309.87-2.6 311.6-5.63 313.32-8.65 313.32-12.9L313.32-12.9 313.32-36.5 308.72-36.5 308.72-20.95 308.62-20.95Q307.77-22.5 306.4-23.65 305.02-24.8 303.25-25.45 301.47-26.1 299.52-26.1L299.52-26.1Q295.97-26.1 293.17-24.5 290.37-22.9 288.75-19.98 287.12-17.05 287.12-13.05L287.12-13.05Q287.12-9.9 288.1-7.38 289.07-4.85 290.82-3.05 292.57-1.25 294.97-0.33 297.37 0.6 300.27 0.6ZM300.27-3.35L300.27-3.35Q297.92-3.35 296-4.5 294.07-5.65 292.92-7.75 291.77-9.85 291.77-12.75L291.77-12.75Q291.77-15.55 292.9-17.65 294.02-19.75 295.92-20.95 297.82-22.15 300.22-22.15L300.22-22.15Q302.57-22.15 304.5-21 306.42-19.85 307.55-17.73 308.67-15.6 308.67-12.7L308.67-12.7Q308.67-9.85 307.55-7.75 306.42-5.65 304.5-4.5 302.57-3.35 300.27-3.35ZM345.07 0L333.87 0 333.87-35 345.07-35Q350.67-35 354.74-32.75 358.82-30.5 361.07-26.55 363.32-22.6 363.32-17.5L363.32-17.5Q363.32-12.4 361.07-8.45 358.82-4.5 354.74-2.25 350.67 0 345.07 0L345.07 0ZM338.67-30.75L338.67-4.25 345.12-4.25Q349.02-4.25 352.04-5.85 355.07-7.45 356.82-10.43 358.57-13.4 358.57-17.5L358.57-17.5Q358.57-21.65 356.82-24.6 355.07-27.55 352.04-29.15 349.02-30.75 345.12-30.75L345.12-30.75 338.67-30.75ZM388.57 0L382.02 0Q377.82 0 374.57-1.58 371.32-3.15 369.49-6.03 367.67-8.9 367.67-12.75L367.67-12.75Q367.67-16.55 369.22-19.58 370.77-22.6 373.52-24.35 376.27-26.1 379.92-26.1L379.92-26.1Q383.87-26.1 386.49-24.4 389.12-22.7 390.42-19.83 391.72-16.95 391.72-13.4L391.72-13.4Q391.72-12.85 391.69-12.25 391.67-11.65 391.57-11.2L391.57-11.2 372.57-11.2Q372.82-8.85 374.12-7.23 375.42-5.6 377.44-4.78 379.47-3.95 381.92-3.95L381.92-3.95 388.57-3.95 388.57 0ZM372.52-14.45L372.52-14.45 387.07-14.45Q387.07-15.4 386.87-16.48 386.67-17.55 386.17-18.57 385.67-19.6 384.84-20.43 384.02-21.25 382.79-21.75 381.57-22.25 379.92-22.25L379.92-22.25Q378.17-22.25 376.84-21.58 375.52-20.9 374.57-19.78 373.62-18.65 373.12-17.25 372.62-15.85 372.52-14.45ZM407.81 0.6L407.81 0.6Q406.11 0.6 404.74-0.38 403.36-1.35 402.71-3.15L402.71-3.15 394.41-25.5 399.46-25.5 406.86-4.85Q407.06-4.35 407.31-4.15 407.56-3.95 407.86-3.95L407.86-3.95Q408.21-3.95 408.44-4.15 408.66-4.35 408.86-4.85L408.86-4.85 416.31-25.5 421.26-25.5 412.96-3.15Q412.26-1.35 410.91-0.38 409.56 0.6 407.81 0.6ZM444.41 0L437.86 0Q433.66 0 430.41-1.58 427.16-3.15 425.34-6.03 423.51-8.9 423.51-12.75L423.51-12.75Q423.51-16.55 425.06-19.58 426.61-22.6 429.36-24.35 432.11-26.1 435.76-26.1L435.76-26.1Q439.71-26.1 442.34-24.4 444.96-22.7 446.26-19.83 447.56-16.95 447.56-13.4L447.56-13.4Q447.56-12.85 447.54-12.25 447.51-11.65 447.41-11.2L447.41-11.2 428.41-11.2Q428.66-8.85 429.96-7.23 431.26-5.6 433.29-4.78 435.31-3.95 437.76-3.95L437.76-3.95 444.41-3.95 444.41 0ZM428.36-14.45L428.36-14.45 442.91-14.45Q442.91-15.4 442.71-16.48 442.51-17.55 442.01-18.57 441.51-19.6 440.69-20.43 439.86-21.25 438.64-21.75 437.41-22.25 435.76-22.25L435.76-22.25Q434.01-22.25 432.69-21.58 431.36-20.9 430.41-19.78 429.46-18.65 428.96-17.25 428.46-15.85 428.36-14.45ZM458.01 0L453.41 0 453.41-36.5 458.01-36.5 458.01 0ZM477.31 0.6L477.31 0.6Q473.41 0.6 470.41-1.18 467.41-2.95 465.66-5.98 463.91-9 463.91-12.75L463.91-12.75Q463.91-16.5 465.66-19.53 467.41-22.55 470.41-24.33 473.41-26.1 477.31-26.1L477.31-26.1Q481.21-26.1 484.23-24.33 487.26-22.55 488.98-19.53 490.71-16.5 490.71-12.75L490.71-12.75Q490.71-9 488.98-5.98 487.26-2.95 484.23-1.18 481.21 0.6 477.31 0.6ZM477.31-3.35L477.31-3.35Q479.96-3.35 481.91-4.6 483.86-5.85 484.96-7.98 486.06-10.1 486.06-12.75L486.06-12.75Q486.06-15.4 484.96-17.53 483.86-19.65 481.91-20.9 479.96-22.15 477.31-22.15L477.31-22.15Q474.71-22.15 472.73-20.9 470.76-19.65 469.66-17.53 468.56-15.4 468.56-12.75L468.56-12.75Q468.56-10.1 469.66-7.98 470.76-5.85 472.73-4.6 474.71-3.35 477.31-3.35ZM509.5-26.1L509.5-26.1Q505.8-26.1 502.85-24.5 499.9-22.9 498.18-19.88 496.45-16.85 496.45-12.6L496.45-12.6 496.45 11 501.05 11 501.05-4.55 501.15-4.55Q502-3 503.38-1.85 504.75-0.7 506.53-0.05 508.3 0.6 510.25 0.6L510.25 0.6Q513.8 0.6 516.6-1 519.4-2.6 521.03-5.53 522.65-8.45 522.65-12.45L522.65-12.45Q522.65-15.6 521.68-18.13 520.7-20.65 518.95-22.45 517.2-24.25 514.8-25.18 512.4-26.1 509.5-26.1ZM509.5-22.15L509.5-22.15Q511.85-22.15 513.78-21 515.7-19.85 516.85-17.75 518-15.65 518-12.75L518-12.75Q518-9.95 516.88-7.85 515.75-5.75 513.85-4.55 511.95-3.35 509.55-3.35L509.55-3.35Q507.2-3.35 505.28-4.5 503.35-5.65 502.23-7.78 501.1-9.9 501.1-12.8L501.1-12.8Q501.1-15.65 502.23-17.75 503.35-19.85 505.28-21 507.2-22.15 509.5-22.15Z" opacity="1" transform="matrix(1,0,0,1,0,0)" fill="#ffffff" class="slogan-text-1" data-fill-palette-color="quaternary" id="text-1"></path></svg></g></svg></g></svg></g></svg></g><g transform="matrix(1,0,0,1,40.713262274387006,0)"><svg viewBox="0 0 131.7319166783831 111.63559334756084" height="111.63559334756084" width="131.7319166783831"><g><svg xmlns="http://www.w3.org/2000/svg" xmlns:xlink="http://www.w3.org/1999/xlink" version="1.1" x="0" y="0" viewBox="20.3855 24.901999999999987 60.4865 51.259" enable-background="new 0 0 100 100" xml:space="preserve" height="111.63559334756084" width="131.7319166783831" class="icon-icon-0" data-fill-palette-color="quaternary" id="icon-0"><path d="M70.386 34.91l-15.31-10.005v5.564h1.44v-3.173l11.306 7.614H33.626l11.311-7.617v3.173h1.44v-5.564L31.062 34.91H31.06h0v8.641h16.742v-4.49h5.848v4.49h16.742V34.91H70.386zM46.362 42.111H32.5V36.35h13.862V42.111zM47.802 37.621V36.35h5.848v1.271H47.802zM68.952 42.111H55.09V36.35h13.862V42.111z" fill="#ffffff" data-fill-palette-color="quaternary"></path><g fill="#ffffff" data-fill-palette-color="quaternary"><path fill="none" d="M41.497 54.88v4.118l35.56 0.003L77.051 48.34H26.594c-6.361 0.043-6.459 10.656 0 10.656l6.143 0.001V54.88H41.497z"></path><path fill="none" d="M37.117 64.96l-4.38 5.4v-6.3h-6.143c-6.361 0.043-6.459 10.656 0 10.656l50.464 0.005L77.051 64.06H41.497v6.3L37.117 64.96z"></path><path d="M80.872 46.9H26.594c-8.278 0-8.278 13.536 0 13.536l6.143 0.001v2.183h-6.143c-8.278 0-8.278 13.536 0 13.536l54.278 0.005v-1.44h-2.374L78.491 64.06h2.381v-1.44H41.497v-2.182l39.375 0.004v-1.44h-2.374L78.491 48.34h2.381V46.9zM77.051 64.06l0.007 10.661-50.464-0.005c-6.459 0-6.361-10.613 0-10.656h6.143v6.3l4.38-5.4 4.38 5.4v-6.3H77.051zM34.177 66.299V56.32h5.88v9.979l-2.94-3.625L34.177 66.299zM41.497 58.998V54.88h-8.76v4.117l-6.143-0.001c-6.459 0-6.361-10.613 0-10.656h50.457l0.007 10.661L41.497 58.998z" fill="#ffffff" data-fill-palette-color="quaternary"></path></g></svg></g></svg></g><g></g></svg></g></svg></g></svg></g></svg></g><defs></defs></svg><rect width="333.90454557049503" height="333.90454557049503" fill="none" stroke="none" visibility="hidden"></rect></g></svg></g></svg>